<svg width="425" height="74" viewBox="0 0 425 74" fill="none" xmlns="http://www.w3.org/2000/svg">
  <rect width="425" height="74" fill="#243A6B"/>
  <g transform="translate(6 4)">
    <path d="M36 4C29 4 23 8 20 15C18 20 18 26 19 31L12 38L18 39L18 47L27 49L28 57H45L46 49L55 47V39L61 38L54 31C55 26 55 20 53 15C50 8 44 4 36 4Z" stroke="#F4F7FB" stroke-width="2" fill="none"/>
    <path d="M25 23C28 18 31 16 36 16C41 16 44 18 47 23" stroke="#F4F7FB" stroke-width="2"/>
    <path d="M36 16V39" stroke="#F4F7FB" stroke-width="2"/>
    <path d="M23 40H49" stroke="#F4F7FB" stroke-width="2"/>
    <circle cx="36" cy="39" r="6" stroke="#F4F7FB" stroke-width="2"/>
    <path d="M29 6C29 3 31 1 34 1H38C41 1 43 3 43 6V9H29V6Z" stroke="#F4F7FB" stroke-width="2"/>
  </g>
  <g fill="#FFFFFF" font-family="Arial, Helvetica, sans-serif" font-size="12" font-weight="700">
    <text x="87" y="30">ESTADO</text>
    <text x="87" y="43">MAYOR</text>
    <text x="87" y="56">DE LA</text>
    <text x="87" y="69">DEFENSA</text>
  </g>
  <g transform="translate(165 4)">
    <path d="M27 0C22 0 18 4 18 9V11H36V9C36 4 32 0 27 0Z" fill="#D4AF37"/>
    <rect x="18" y="9" width="18" height="6" rx="2" fill="#D4AF37"/>
    <path d="M11 15H43V40C43 45 36 49 27 52C18 49 11 45 11 40V15Z" fill="#2550A1" stroke="#F0D165" stroke-width="2"/>
    <path d="M17 22C23 17 31 17 37 22V40H17V22Z" fill="#E8BC39"/>
    <path d="M27 22V38" stroke="#2550A1" stroke-width="2"/>
    <path d="M18 31H36" stroke="#2550A1" stroke-width="2"/>
    <path d="M20 40C23 35 25 31 27 25C29 31 31 35 34 40" stroke="#2550A1" stroke-width="2"/>
  </g>
  <g fill="#FFFFFF" font-family="Arial, Helvetica, sans-serif" font-weight="700">
    <text x="228" y="31" font-size="14">
      <tspan fill="#D74A43">I</tspan><tspan fill="#FFFFFF">NTEGRACIÓN EN</tspan>
    </text>
    <text x="228" y="54" font-size="14">EL MULTIDOMINIO</text>
  </g>
</svg>
