<svg width="281" height="74" viewBox="0 0 281 74" fill="none" xmlns="http://www.w3.org/2000/svg">
  <rect width="281" height="74" fill="#F8CE27"/>
  <rect width="28" height="74" fill="#163A8A"/>
  <rect x="14" width="14" height="74" fill="#C81F32"/>
  <rect x="14" width="7" height="74" fill="#F7D24B"/>
  <g fill="#F7D24B" transform="translate(4 14)">
    <polygon points="10,0 12.2,6.3 18.8,6.3 13.5,10.4 15.6,16.8 10,12.8 4.4,16.8 6.5,10.4 1.2,6.3 7.8,6.3"/>
    <polygon points="10,20 12.2,26.3 18.8,26.3 13.5,30.4 15.6,36.8 10,32.8 4.4,36.8 6.5,30.4 1.2,26.3 7.8,26.3"/>
    <polygon points="10,40 12.2,46.3 18.8,46.3 13.5,50.4 15.6,56.8 10,52.8 4.4,56.8 6.5,50.4 1.2,46.3 7.8,46.3"/>
  </g>
  <g transform="translate(40 10)">
    <path d="M27 0C22 0 18 4 18 9V11H36V9C36 4 32 0 27 0Z" fill="#D4AF37"/>
    <rect x="18" y="9" width="18" height="6" rx="2" fill="#D4AF37"/>
    <path d="M11 15H43V40C43 45 36 49 27 52C18 49 11 45 11 40V15Z" fill="#C61E2F"/>
    <rect x="22.5" y="17.5" width="9" height="22" fill="#F4C748"/>
    <rect x="15" y="24" width="24" height="9" fill="#F4C748"/>
    <rect x="8" y="16" width="7" height="26" rx="3" fill="#D0D4D8"/>
    <rect x="39" y="16" width="7" height="26" rx="3" fill="#D0D4D8"/>
    <path d="M7 31C10 28 12 27 15 30" stroke="#B7162B" stroke-width="2"/>
    <path d="M39 30C42 27 44 28 47 31" stroke="#B7162B" stroke-width="2"/>
    <circle cx="27" cy="28" r="4" fill="#163A8A"/>
  </g>
  <line x1="93" y1="0" x2="93" y2="74" stroke="#F0DF7D" stroke-opacity="0.55"/>
  <line x1="186" y1="0" x2="186" y2="74" stroke="#F0DF7D" stroke-opacity="0.55"/>
  <g fill="#131313" font-family="Arial, Helvetica, sans-serif" font-size="12" font-weight="500">
    <text x="103" y="31">GOBIERNO</text>
    <text x="103" y="46">DE ESPAÑA</text>
    <text x="196" y="31">MINISTERIO</text>
    <text x="196" y="46">DE DEFENSA</text>
  </g>
</svg>
